<svg xmlns="http://www.w3.org/2000/svg" version="1.1" viewBox="-5.0 -10.0 110.0 135.0">
 <g>
  <path d="m9.5195 92.719h71.738c0.23047 0 0.42969-0.089844 0.60156-0.21875l13.469-10.48c0.23047-0.19922 0.39844-0.46875 0.39844-0.78906l0.003907-62.461c0-2.8984-2.3594-5.25-5.25-5.25h-10.48v-2.75c0-1.9219-1.5586-3.4805-3.4805-3.4805h-0.37109c-1.9219 0-3.4805 1.5586-3.4805 3.4805v2.75h-5.8281v-2.75c0-1.9219-1.5586-3.4805-3.4805-3.4805h-0.37109c-1.9219 0-3.4805 1.5586-3.4805 3.4805v2.75h-5.8281v-2.75c0-1.9219-1.5586-3.4805-3.4805-3.4805h-0.37109c-1.9219 0-3.4805 1.5586-3.4805 3.4805v2.75h-5.8281v-2.75c0-1.9219-1.5586-3.4805-3.4805-3.4805h-0.37109c-1.9219 0-3.4805 1.5586-3.4805 3.4805v2.75h-5.8281v-2.75c0-1.9219-1.5586-3.4805-3.4805-3.4805h-0.37109c-1.9219 0-3.4805 1.5586-3.4805 3.4805v2.75h-10.48c-2.8906 0-5.25 2.3516-5.25 5.25v68.699c0 2.8984 2.3594 5.25 5.25 5.25zm70.742-11.488v9.4883h-70.742c-1.7891 0-3.25-1.4609-3.25-3.25v-57.848h87.461v50.609h-12.469c-0.55078 0-1 0.44922-1 1zm11.559 1-9.5586 7.4414v-7.4414zm-17.148-71.461c0-0.82031 0.67188-1.4805 1.4805-1.4805h0.37109c0.82031 0 1.4805 0.67188 1.4805 1.4805v7.5c0 0.82031-0.67188 1.4805-1.4805 1.4805h-0.37109c-0.82031 0-1.4805-0.67188-1.4805-1.4805zm-13.172 0c0-0.82031 0.67188-1.4805 1.4805-1.4805h0.37109c0.82031 0 1.4805 0.67188 1.4805 1.4805v7.5c0 0.82031-0.67188 1.4805-1.4805 1.4805h-0.37109c-0.82031 0-1.4805-0.67188-1.4805-1.4805zm-13.172 0c0-0.82031 0.67188-1.4805 1.4805-1.4805h0.37109c0.82031 0 1.4805 0.67188 1.4805 1.4805v7.5c0 0.82031-0.67188 1.4805-1.4805 1.4805h-0.37109c-0.82031 0-1.4805-0.67188-1.4805-1.4805zm-13.156 0c0-0.82031 0.67188-1.4805 1.4805-1.4805h0.37109c0.82031 0 1.4805 0.67188 1.4805 1.4805v7.5c0 0.82031-0.67188 1.4805-1.4805 1.4805h-0.37109c-0.82031 0-1.4805-0.67188-1.4805-1.4805zm-13.172 0c0-0.82031 0.67188-1.4805 1.4805-1.4805h0.37109c0.82031 0 1.4805 0.67188 1.4805 1.4805v7.5c0 0.82031-0.67188 1.4805-1.4805 1.4805h-0.37109c-0.82031 0-1.4805-0.67188-1.4805-1.4805zm-12.48 4.75h10.48v2.75c0 1.9219 1.5586 3.4805 3.4805 3.4805h0.37109c1.9219 0 3.4805-1.5586 3.4805-3.4805v-2.75h5.8281v2.75c0 1.9219 1.5586 3.4805 3.4805 3.4805h0.37109c1.9219 0 3.4805-1.5586 3.4805-3.4805v-2.75h5.8281v2.75c0 1.9219 1.5586 3.4805 3.4805 3.4805h0.37109c1.9219 0 3.4805-1.5586 3.4805-3.4805v-2.75h5.8281v2.75c0 1.9219 1.5586 3.4805 3.4805 3.4805h0.37109c1.9219 0 3.4805-1.5586 3.4805-3.4805v-2.75h5.8281v2.75c0 1.9219 1.5586 3.4805 3.4805 3.4805h0.37109c1.9219 0 3.4805-1.5586 3.4805-3.4805v-2.75h10.48c1.7891 0 3.25 1.4609 3.25 3.25v8.8516h-87.434v-8.8516c0-1.7891 1.4609-3.25 3.25-3.25z"/>
  <path d="m23.828 33.449h-11.672c-0.55078 0-1 0.44922-1 1v11.672c0 0.55078 0.44922 1 1 1h11.672c0.55078 0 1-0.44922 1-1v-11.672c0-0.55078-0.44922-1-1-1zm-1 11.672h-9.6719v-9.6719h9.6719z"/>
  <path d="m39.672 33.449h-11.672c-0.55078 0-1 0.44922-1 1v11.672c0 0.55078 0.44922 1 1 1h11.672c0.55078 0 1-0.44922 1-1v-11.672c0-0.55078-0.44922-1-1-1zm-1 11.672h-9.6719v-9.6719h9.6719z"/>
  <path d="m55.5 33.449h-11.672c-0.55078 0-1 0.44922-1 1v11.672c0 0.55078 0.44922 1 1 1h11.672c0.55078 0 1-0.44922 1-1v-11.672c0-0.55078-0.44922-1-1-1zm-1 11.672h-9.6719v-9.6719h9.6719z"/>
  <path d="m71.328 33.449h-11.672c-0.55078 0-1 0.44922-1 1v11.672c0 0.55078 0.44922 1 1 1h11.672c0.55078 0 1-0.44922 1-1v-11.672c0-0.55078-0.44922-1-1-1zm-1 11.672h-9.6719v-9.6719h9.6719z"/>
  <path d="m75.5 47.121h11.672c0.55078 0 1-0.44922 1-1v-11.672c0-0.55078-0.44922-1-1-1h-11.672c-0.55078 0-1 0.44922-1 1v11.672c0 0.55078 0.44922 1 1 1zm1-11.672h9.6719v9.6719h-9.6719z"/>
  <path d="m23.828 49.281h-11.672c-0.55078 0-1 0.44922-1 1v11.672c0 0.55078 0.44922 1 1 1h11.672c0.55078 0 1-0.44922 1-1v-11.672c0-0.55078-0.44922-1-1-1zm-1 11.668h-9.6719v-9.6719h9.6719z"/>
  <path d="m39.672 49.281h-11.672c-0.55078 0-1 0.44922-1 1v11.672c0 0.55078 0.44922 1 1 1h11.672c0.55078 0 1-0.44922 1-1v-11.672c0-0.55078-0.44922-1-1-1zm-1 11.668h-9.6719v-9.6719h9.6719z"/>
  <path d="m55.5 49.281h-11.672c-0.55078 0-1 0.44922-1 1v11.672c0 0.55078 0.44922 1 1 1h11.672c0.55078 0 1-0.44922 1-1v-11.672c0-0.55078-0.44922-1-1-1zm-1 11.668h-9.6719v-9.6719h9.6719z"/>
  <path d="m71.328 49.281h-11.672c-0.55078 0-1 0.44922-1 1v11.672c0 0.55078 0.44922 1 1 1h11.672c0.55078 0 1-0.44922 1-1v-11.672c0-0.55078-0.44922-1-1-1zm-1 11.668h-9.6719v-9.6719h9.6719z"/>
  <path d="m88.172 61.949v-11.672c0-0.55078-0.44922-1-1-1h-11.672c-0.55078 0-1 0.44922-1 1v11.672c0 0.55078 0.44922 1 1 1h11.672c0.55078 0 1-0.44922 1-1zm-2-1h-9.6719v-9.6719h9.6719z"/>
  <path d="m23.828 65.121h-11.672c-0.55078 0-1 0.44922-1 1v11.672c0 0.55078 0.44922 1 1 1h11.672c0.55078 0 1-0.44922 1-1v-11.672c0-0.55078-0.44922-1-1-1zm-1 11.66h-9.6719v-9.6719h9.6719z"/>
  <path d="m39.672 65.121h-11.672c-0.55078 0-1 0.44922-1 1v11.672c0 0.55078 0.44922 1 1 1h11.672c0.55078 0 1-0.44922 1-1v-11.672c0-0.55078-0.44922-1-1-1zm-1 11.66h-9.6719v-9.6719h9.6719z"/>
  <path d="m55.5 65.121h-11.672c-0.55078 0-1 0.44922-1 1v11.672c0 0.55078 0.44922 1 1 1h11.672c0.55078 0 1-0.44922 1-1v-11.672c0-0.55078-0.44922-1-1-1zm-1 11.66h-9.6719v-9.6719h9.6719z"/>
 </g></svg>