<svg xmlns="http://www.w3.org/2000/svg" xmlns:xlink="http://www.w3.org/1999/xlink" version="1.1" x="0px" y="0px" viewBox="0 0 68 85" style="enable-background:new 0 0 68 68;" xml:space="preserve"><g><g><g><g><path d="M57.0651779,57.5H19.4650822c-0.5522461,0-1-0.4477539-1-1V2c0-0.5522461,0.4477539-1,1-1h37.6000977      c0.5522461,0,1,0.4477539,1,1v54.5C58.0651779,57.0522461,57.617424,57.5,57.0651779,57.5z M20.4650822,55.5h35.6000977V3      H20.4650822V55.5z"/></g><g><path d="M48.0651779,18H24.4650822c-0.5522461,0-1-0.4477539-1-1V7c0-0.5522461,0.4477539-1,1-1h23.6000957      c0.5522461,0,1,0.4477539,1,1v10C49.0651779,17.5522461,48.617424,18,48.0651779,18z M25.4650822,16h21.6000957V8H25.4650822V16      z"/></g><g><path d="M10.9348087,62.25c-0.5522461,0-1-0.4477539-1-1V6.75c0-3.1704102,2.5795898-5.75,5.75-5.75h3.7802734      c0.5522461,0,1,0.4477539,1,1v54.5c0,0.5522461-0.4477539,1-1,1h-3.7802734c-2.0678711,0-3.75,1.6821289-3.75,3.75      C11.9348087,61.8022461,11.4870548,62.25,10.9348087,62.25z M15.6848087,3c-2.0678711,0-3.75,1.6821289-3.75,3.75v50.1445313      C12.9421329,56.0258789,14.2531681,55.5,15.6848087,55.5h2.7802734V3H15.6848087z"/></g><g><path d="M57.0651779,67H15.6848087c-3.1704102,0-5.75-2.5795898-5.75-5.75s2.5795898-5.75,5.75-5.75h41.3803711      c0.3676758,0,0.7055664,0.2016602,0.8798828,0.5249023c0.1748047,0.3232422,0.1577148,0.7163086-0.0439453,1.0234375      c-1.8549805,2.8276367-1.8549805,5.5761719,0,8.402832c0.2016602,0.3076172,0.21875,0.7006836,0.0439453,1.0239258      C57.7707443,66.7983398,57.4328537,67,57.0651779,67z M15.6848087,57.5c-2.0678711,0-3.75,1.6821289-3.75,3.75      s1.6821289,3.75,3.75,3.75h39.6787109c-1.152832-2.4941406-1.152832-5.0058594,0-7.5H15.6848087z"/></g></g></g><g><g><path d="M36.2648849,52.5004883c-1.3037109,0-2.4282227-0.793457-2.8652344-2.0219727l-0.3525391-0.9916992     c-0.0996094-0.28125-0.3066406-0.4990234-0.5820313-0.612793c-0.2753906-0.1142578-0.5756817-0.1069336-0.8452129,0.0214844     L30.669672,49.347168c-1.1787109,0.5605469-2.5351563,0.3251953-3.4555664-0.5961914     c-0.921875-0.921875-1.1557617-2.277832-0.5961914-3.4550781l0.4516602-0.9506836     C27.197504,44.0756836,27.2053165,43.7753906,27.0910587,43.5c-0.1137695-0.2753906-0.331543-0.4824219-0.6123047-0.5820313     l-0.9916992-0.3525391c-1.2285156-0.4370117-2.0224609-1.5615234-2.0224609-2.8652344s0.7939453-2.4282227,2.0224609-2.8652344     l0.9916992-0.3525391c0.2807617-0.0996094,0.4985352-0.3066406,0.6123047-0.5820313     c0.1142578-0.2753906,0.1064453-0.5756836-0.0214844-0.8452148l-0.4516602-0.9506836     c-0.5595703-1.1767578-0.3256836-2.5332031,0.5957031-3.4550781c0.9223633-0.921875,2.2788086-1.1557617,3.4555664-0.5966797     l0.9511719,0.4526367c0.2685547,0.1269531,0.569334,0.1352539,0.8447247,0.0209961     c0.2753906-0.1137695,0.4824219-0.331543,0.5820313-0.6123047l0.3525391-0.9916992     c0.4370117-1.2285156,1.5615234-2.0224609,2.8652344-2.0224609s2.4282227,0.7939453,2.8652344,2.0224609l0,0l0.3525391,0.9916992     c0.0996094,0.2807617,0.3066406,0.4985352,0.5820313,0.6123047c0.2753906,0.1142578,0.5756836,0.1069336,0.8452148-0.0214844     l0.9501953-0.4516602c1.1796875-0.5600586,2.534668-0.3251953,3.4560547,0.5961914     c0.9213867,0.921875,1.1557617,2.277832,0.5961914,3.4550781l-0.4526367,0.9511719     c-0.1274414,0.269043-0.1352539,0.5688477-0.0209961,0.8447266c0.1137695,0.2753906,0.331543,0.4824219,0.612793,0.5820313     l0.9916992,0.3525391c1.2285156,0.4370117,2.0219727,1.5615234,2.0219727,2.8652344s-0.793457,2.4282227-2.0219727,2.8652344     l-0.9916992,0.3525391c-0.28125,0.0996094-0.4990234,0.3066406-0.612793,0.5820313     c-0.1142578,0.2758789-0.1064453,0.5756836,0.0214844,0.8452148l0.4516602,0.9501953     c0.5600586,1.1777344,0.3256836,2.5341797-0.5957031,3.4560547c-0.9213867,0.9208984-2.2773438,1.15625-3.4555664,0.5961914     l-0.9511719-0.4526367c-0.2685547-0.1269531-0.5683594-0.1352539-0.8447266-0.0209961     c-0.2753906,0.1137695-0.4824219,0.331543-0.5820313,0.612793l-0.3525391,0.9916992     C38.6931076,51.7070313,37.5685959,52.5004883,36.2648849,52.5004883z M32.067131,46.7949219     c0.3955078,0,0.7910156,0.0771484,1.1630859,0.2314453c0.793457,0.3286133,1.4135742,0.980957,1.7016602,1.7905273     l0.3525391,0.9916992c0.2280273,0.6420898,0.8081055,0.6918945,0.9804688,0.6918945s0.7524414-0.0498047,0.9804688-0.6918945     l0.3525391-0.9916992c0.2880859-0.8095703,0.9082031-1.4619141,1.7016602-1.7905273     c0.7929688-0.3291016,1.6933594-0.3056641,2.46875,0.0625l0.9511719,0.4526367     c0.6171875,0.293457,1.0605469-0.0825195,1.1821289-0.2045898c0.1220703-0.121582,0.496582-0.5668945,0.2041016-1.1826172     l-0.4516602-0.9501953c-0.3691406-0.7763672-0.3920898-1.6762695-0.0629883-2.4692383     c0.3286133-0.793457,0.980957-1.4135742,1.7905273-1.7016602l0.9916992-0.3525391     c0.6420898-0.2280273,0.6918945-0.8081055,0.6918945-0.9804688s-0.0498047-0.7524414-0.6918945-0.9804688l-0.9916992-0.3525391     c-0.8095703-0.2880859-1.4619141-0.9082031-1.7905273-1.7016602c-0.3291016-0.7929688-0.3061523-1.6928711,0.0625-2.46875     l0.4526367-0.9511719c0.2919922-0.6147461-0.0825195-1.0600586-0.2045898-1.1821289     c-0.1220703-0.121582-0.5698242-0.4970703-1.1826172-0.2041016l-0.9501953,0.4516602     c-0.7768555,0.3686523-1.6767578,0.3916016-2.4692383,0.0634766c-0.793457-0.3286133-1.4135742-0.9814453-1.7016602-1.7905273     l-0.3525391-0.9916992c-0.2280273-0.6420898-0.8081055-0.6923828-0.9804688-0.6923828s-0.7524414,0.050293-0.9804688,0.6923828     l-0.3525391,0.9916992c-0.2880859,0.809082-0.9082031,1.4619141-1.7016602,1.7905273     c-0.793457,0.3276367-1.6938457,0.3051758-2.4687481-0.0629883l-0.9511719-0.4526367     c-0.6123047-0.2915039-1.0600586,0.0830078-1.1821289,0.2045898c-0.121582,0.1220703-0.496582,0.5673828-0.2041016,1.1821289     l0.4521484,0.9511719c0.3686523,0.7758789,0.3916016,1.6757813,0.0629883,2.46875     c-0.3286133,0.793457-0.9814453,1.4135742-1.7905273,1.7016602l-0.9916992,0.3525391     c-0.6420898,0.2280273-0.6923828,0.8081055-0.6923828,0.9804688s0.050293,0.7524414,0.6923828,0.9804688l0.9916992,0.3525391     c0.809082,0.2880859,1.4619141,0.9082031,1.7905273,1.7016602c0.3286133,0.7929688,0.3056641,1.6928711-0.0629883,2.46875     l-0.4516602,0.9506836c-0.2929688,0.6157227,0.0820313,1.0610352,0.2036133,1.1826172     c0.1210938,0.1220703,0.5673828,0.496582,1.1826172,0.2041016l0.9501953-0.4516602     C31.17309,46.8935547,31.6198673,46.7949219,32.067131,46.7949219z"/></g><g><polygon points="36.2663422,34.5988884 37.9238701,37.9574165 41.6302223,38.4959793 38.9482803,41.1102257      39.5814018,44.8016014 36.2663422,43.0587692 32.9512787,44.8016014 33.5844002,41.1102257 30.9024582,38.4959793      34.6088104,37.9574165    "/></g></g></g></svg>