<svg xmlns="http://www.w3.org/2000/svg" version="1.1" viewBox="-5.0 -10.0 110.0 135.0">
 <path d="m98.438 65.625h-9.5391c5.7188-3.5977 9.5391-9.9492 9.5391-17.188 0-11.199-9.1133-20.312-20.312-20.312-7.2383 0-13.59 3.8203-17.188 9.5391v-3.2891c0-0.32812-0.16797-0.74609-0.32031-0.94922l-25-32.812c-0.58984-0.77344-1.8945-0.77344-2.4844 0l-25 32.812c-0.21094 0.27734-0.32031 0.68359-0.32031 0.94922v31.25h-6.25c-0.86328 0-1.5625 0.69922-1.5625 1.5625v31.25c0 0.86328 0.69922 1.5625 1.5625 1.5625h14.062c0.86328 0 1.5625-0.69922 1.5625-1.5625 0-9.4766 7.7109-17.188 17.188-17.188s17.188 7.7109 17.188 17.188c0 0.86328 0.69922 1.5625 1.5625 1.5625h45.312c0.86328 0 1.5625-0.69922 1.5625-1.5625v-31.25c0-0.86328-0.69922-1.5625-1.5625-1.5625zm-20.312-34.375c9.4766 0 17.188 7.7109 17.188 17.188s-7.7109 17.188-17.188 17.188-17.188-7.7109-17.188-17.188 7.7109-17.188 17.188-17.188zm-10.938 34.375h-6.25v-6.4141c1.6289 2.5898 3.8203 4.7812 6.4141 6.4141zm-9.375 0h-10.938v-29.688h10.938zm-32.812 0v-29.688h18.75v29.688zm9.375-61.484 21.844 28.672h-43.688zm-23.438 31.797h10.938v29.688h-10.938zm23.438 42.188c-10.676 0-19.453 8.2773-20.254 18.75h-10.996v-28.125h62.5v28.125h-10.996c-0.80078-10.473-9.5781-18.75-20.254-18.75zm62.5 18.75h-28.125v-28.125h28.125z"/></svg>