<svg xmlns="http://www.w3.org/2000/svg" version="1.1" viewBox="-5.0 -10.0 110.0 135.0">
 <g>
  <path d="m89.125 26.359-6.75-4.0156 2.7656-9.6094c0.23438-0.8125-0.21875-1.6719-1.0312-1.9219l-9.5781-2.9375c-0.0625-0.015625-0.10938-0.03125-0.17188-0.03125v-1.7031c0-0.85938-0.70312-1.5625-1.5625-1.5625h-61.125c-0.85938 0-1.5625 0.70312-1.5625 1.5625v87.719c0 0.85938 0.70312 1.5625 1.5625 1.5625h50.297c0.46875 0 0.92188-0.21875 1.2188-0.57812l10.828-13.328c0.21875-0.28125 0.34375-0.625 0.34375-0.98438v-16.906l15.406-35.297c0.3125-0.71875 0.046875-1.5625-0.64062-1.9688zm-26.719 64.484-3.8438-9.5938h11.641zm8.8281-12.719h-14.984c-0.51562 0-1 0.25-1.2969 0.6875-0.28125 0.42188-0.34375 0.96875-0.15625 1.4531l4.8125 12.031h-46.375v-84.594h58zm3.125-67.031 7.3594 2.25-7.3594 25.578zm0 44.719v-5.5938l7.125-24.781 4.8594 2.9062z"/>
  <path d="m59.719 30h-0.78125l-2.8789-9.4844c0.67578-0.17188 1.1562-0.78125 1.1562-1.5 0-0.875-0.6875-1.5625-1.5625-1.5625h-11.906v-4.6875c0-0.875-0.70312-1.5625-1.5625-1.5625s-1.5625 0.6875-1.5625 1.5625v4.6875h-11.906c-0.875 0-1.5625 0.6875-1.5625 1.5625 0 0.71875 0.48828 1.3281 1.1562 1.5l-2.875 9.4844h-0.78125c-0.45312 0-0.89062 0.20312-1.1875 0.54688-0.29688 0.35938-0.42188 0.82812-0.34375 1.2812 1.0156 5.8906 2.5781 5.8906 3.3281 5.8906h7.1719c2.9375 0 3.3438-6.1094 3.3438-6.1562 0-0.875-0.70312-1.5625-1.5625-1.5625h-0.78125l-2.8594-9.4219h8.8594v23.953c0 0.1875 0.03125 0.35938 0.09375 0.51562h-5.7656c-0.875 0-1.5625 0.70312-1.5625 1.5625 0 0.875 0.6875 1.5625 1.5625 1.5625h14.469c0.87891 0 1.5625-0.6875 1.5625-1.5625 0-0.85938-0.68359-1.5625-1.5625-1.5625h-5.7656c0.0625-0.15625 0.09375-0.32812 0.09375-0.51562l0.003906-23.953h8.8594l-2.8594 9.4219h-0.78125c-0.46875 0-0.90625 0.20312-1.2031 0.54688-0.29688 0.35938-0.42188 0.82812-0.34375 1.2812 1.0273 5.8906 2.5898 5.8906 3.3281 5.8906h7.1719c2.9531 0 3.3555-6.1094 3.3555-6.1562 0.003906-0.875-0.70312-1.5625-1.5586-1.5625zm-29.688-4.375 1.3281 4.375h-2.6562zm3.543 7.5c-0.14062 0.54688-0.32812 1.125-0.5 1.4688h-6c-0.14062-0.34375-0.3125-0.875-0.46875-1.4688zm20.766-7.5 1.3281 4.375h-2.6562zm3.0508 8.9688h-6c-0.16016-0.34375-0.32812-0.875-0.48438-1.4688h6.9688c-0.14453 0.54688-0.31641 1.125-0.48438 1.4688z"/>
  <path d="m32.227 58.336h-13.82c-0.86328 0-1.5625-0.69922-1.5625-1.5625 0-0.86328 0.69922-1.5625 1.5625-1.5625h13.82c0.86328 0 1.5625 0.69922 1.5625 1.5625 0 0.86328-0.69922 1.5625-1.5625 1.5625z"/>
  <path d="m47.852 66.148h-29.445c-0.86328 0-1.5625-0.69922-1.5625-1.5625 0-0.86328 0.69922-1.5625 1.5625-1.5625h29.445c0.86328 0 1.5625 0.69922 1.5625 1.5625 0 0.86328-0.69922 1.5625-1.5625 1.5625z"/>
  <path d="m66.602 66.148h-13.82c-0.86328 0-1.5625-0.69922-1.5625-1.5625 0-0.86328 0.69922-1.5625 1.5625-1.5625h13.82c0.86328 0 1.5625 0.69922 1.5625 1.5625 0 0.86328-0.69922 1.5625-1.5625 1.5625z"/>
  <path d="m66.602 73.961h-21.633c-0.86328 0-1.5625-0.69922-1.5625-1.5625 0-0.86328 0.69922-1.5625 1.5625-1.5625h21.633c0.86328 0 1.5625 0.69922 1.5625 1.5625 0 0.86328-0.69922 1.5625-1.5625 1.5625z"/>
  <path d="m66.602 58.336h-29.445c-0.86328 0-1.5625-0.69922-1.5625-1.5625 0-0.86328 0.69922-1.5625 1.5625-1.5625h29.445c0.86328 0 1.5625 0.69922 1.5625 1.5625 0 0.86328-0.69922 1.5625-1.5625 1.5625z"/>
  <path d="m40.039 73.961h-21.633c-0.86328 0-1.5625-0.69922-1.5625-1.5625 0-0.86328 0.69922-1.5625 1.5625-1.5625h21.633c0.86328 0 1.5625 0.69922 1.5625 1.5625 0 0.86328-0.69922 1.5625-1.5625 1.5625z"/>
  <path d="m33.789 81.773h-15.383c-0.86328 0-1.5625-0.69922-1.5625-1.5625 0-0.86328 0.69922-1.5625 1.5625-1.5625h15.383c0.86328 0 1.5625 0.69922 1.5625 1.5625 0 0.86328-0.69922 1.5625-1.5625 1.5625z"/>
  <path d="m49.414 81.773h-10.695c-0.86328 0-1.5625-0.69922-1.5625-1.5625 0-0.86328 0.69922-1.5625 1.5625-1.5625h10.695c0.86328 0 1.5625 0.69922 1.5625 1.5625 0 0.86328-0.69922 1.5625-1.5625 1.5625z"/>
  <path d="m33.789 89.586h-15.383c-0.86328 0-1.5625-0.69922-1.5625-1.5625 0-0.86328 0.69922-1.5625 1.5625-1.5625h15.383c0.86328 0 1.5625 0.69922 1.5625 1.5625 0 0.86328-0.69922 1.5625-1.5625 1.5625z"/>
  <path d="m54.102 89.586h-15.383c-0.86328 0-1.5625-0.69922-1.5625-1.5625 0-0.86328 0.69922-1.5625 1.5625-1.5625h15.383c0.86328 0 1.5625 0.69922 1.5625 1.5625 0 0.86328-0.69922 1.5625-1.5625 1.5625z"/>
 </g></svg>