<svg xmlns="http://www.w3.org/2000/svg" xmlns:xlink="http://www.w3.org/1999/xlink" version="1.1" x="0px" y="0px" viewBox="0 0 64 80" style="enable-background:new 0 0 64 64;" xml:space="preserve"><g><circle cx="26" cy="20" r="1"/><circle cx="38" cy="20" r="1"/><path d="M26.504,28.059C27.731,29.9,29.786,31,32,31s4.269-1.1,5.496-2.941l0.336-0.504l-1.664-1.109l-0.336,0.504   C34.976,28.233,33.543,29,32,29s-2.976-0.767-3.832-2.051l-0.336-0.504l-1.664,1.109L26.504,28.059z"/><path d="M43.75,32.595c-0.351-0.388-0.767-0.716-1.227-0.975c1.008-1.391,1.721-2.96,2.114-4.62H46c2.757,0,5-2.243,5-5   c0-1.043-0.323-2.01-0.871-2.813l0.36-1.259C50.828,16.742,51,15.514,51,14.28C51,6.958,45.042,1,37.72,1h-9.226   C23.381,1,18.48,2.571,14.32,5.542C13.494,6.133,13,7.092,13,8.108c0,0.842,0.328,1.634,0.924,2.23l0.388,0.388l-1.464,0.732   C11.708,12.028,11,13.173,11,14.447c0,0.516,0.122,1.033,0.353,1.495l2.049,4.098C13.144,20.642,13,21.304,13,22   c0,2.757,2.243,5,5,5h1.363c0.393,1.661,1.105,3.23,2.114,4.62c-0.46,0.258-0.875,0.587-1.227,0.975   C13.408,35.52,9,42.188,9,49.649v3.715C9,58.678,13.323,63,18.636,63h26.729C50.677,63,55,58.678,55,53.364v-3.715   C55,42.188,50.592,35.52,43.75,32.595z M44.188,38.521C44.719,37.724,45,36.796,45,35.838c0-0.125-0.005-0.249-0.014-0.372   c4.183,2.507,7.023,6.723,7.795,11.534h-5.923c-0.264-0.591-0.543-1.177-0.853-1.746l-2.837-5.202L44.188,38.521z M46,25h-1.046   C44.979,24.668,45,24.335,45,24v-5h1c1.654,0,3,1.346,3,3S47.654,25,46,25z M18,25c-1.654,0-3-1.346-3-3s1.346-3,3-3h1v5   c0,0.335,0.021,0.668,0.046,1H18z M19,16.562V17h-1c-1.252,0-2.383,0.478-3.261,1.241l-1.597-3.194   C13.049,14.862,13,14.655,13,14.447c0-0.511,0.284-0.971,0.742-1.2l3.946-1.974l-2.35-2.35C15.12,8.706,15,8.416,15,8.108   c0-0.372,0.181-0.722,0.483-0.938C19.302,4.442,23.801,3,28.494,3h9.226C43.939,3,49,8.061,49,14.28   c0,1.048-0.146,2.09-0.434,3.099l-0.087,0.305C47.745,17.261,46.906,17,46,17h-1v-0.438c0-2.557-1.732-4.775-4.213-5.396   C40.346,11.056,39.892,11,39.438,11H24.562c-0.454,0-0.907,0.056-1.349,0.166C20.732,11.786,19,14.005,19,16.562z M21,24v-7.438   c0-1.637,1.109-3.058,2.697-3.455C23.98,13.036,24.271,13,24.562,13h14.877c0.291,0,0.581,0.036,0.864,0.106   C41.891,13.503,43,14.924,43,16.562V24c0,2.576-0.906,5.045-2.543,7.016C40.359,31.01,40.262,31,40.162,31h-1.53   c-2.508,0-4.637,1.649-5.363,3.919c-0.84,0.096-1.697,0.096-2.537,0C30.005,32.649,27.876,31,25.368,31h-1.53   c-0.1,0-0.197,0.01-0.295,0.016C21.906,29.044,21,26.576,21,24z M30.93,37.521c0.029-0.187,0.034-0.376,0.045-0.564   C31.315,36.983,31.657,37,32,37s0.685-0.017,1.026-0.044c0.011,0.189,0.015,0.378,0.045,0.565l0.514,3.215   c-1.025,0.341-2.145,0.341-3.17,0L30.93,37.521z M19.014,35.467C19.005,35.589,19,35.713,19,35.838   c0,0.958,0.281,1.886,0.813,2.684l1.02,1.53l-2.837,5.202c-0.311,0.57-0.59,1.155-0.853,1.746h-5.923   C11.991,42.189,14.832,37.973,19.014,35.467z M11,53.364v-3.715c0-0.218,0.013-0.433,0.021-0.649h5.333   C15.469,51.568,15,54.275,15,57h2c0-3.759,0.951-7.489,2.751-10.789l3.417-6.263l-1.691-2.536C21.165,36.944,21,36.399,21,35.838   C21,34.273,22.273,33,23.838,33h1.53C27.371,33,29,34.629,29,36.632c0,0.192-0.015,0.384-0.045,0.573L26.176,54.57   C25.58,58.296,22.409,61,18.636,61C14.425,61,11,57.574,11,53.364z M24.52,61c1.886-1.452,3.228-3.594,3.631-6.113l1.946-12.159   C30.711,42.902,31.346,43,32,43c0.654,0,1.289-0.098,1.904-0.273l1.945,12.159c0.403,2.519,1.745,4.661,3.631,6.113H24.52z    M53,53.364C53,57.574,49.575,61,45.364,61c-3.773,0-6.944-2.704-7.541-6.43l-2.778-17.364C35.015,37.016,35,36.824,35,36.632   C35,34.629,36.629,33,38.632,33h1.53C41.727,33,43,34.273,43,35.838c0,0.562-0.165,1.106-0.477,1.574l-1.691,2.536l3.417,6.263   C46.049,49.511,47,53.241,47,57h2c0-2.725-0.469-5.432-1.354-8h5.333C52.987,49.216,53,49.432,53,49.649V53.364z"/></g></svg>