<svg xmlns="http://www.w3.org/2000/svg" version="1.1" viewBox="-5.0 -10.0 110.0 135.0">
 <path d="m96.875 39.062h-26.562v-4.6875c0-5.4336-2.1094-10.539-5.9414-14.371-3.832-3.832-8.9375-5.9414-14.371-5.9414-11.199 0-20.312 9.1133-20.312 20.312v4.6875h-3.125v-7.8125c0-0.86328-0.69922-1.5625-1.5625-1.5625h-3.125v-7.8125c0-0.86328-0.69922-1.5625-1.5625-1.5625h-9.375c-0.86328 0-1.5625 0.69922-1.5625 1.5625v7.8125h-3.125c-0.86328 0-1.5625 0.69922-1.5625 1.5625v7.8125h-1.5625c-1.7227 0-3.125 1.4023-3.125 3.125v6.25c0 1.7227 1.4023 3.125 3.125 3.125h4.293l-6.1094 26.883c-0.41406 1.8281 0.015625 3.7188 1.1875 5.1836s2.918 2.3086 4.793 2.3086c2.8828 0 5.3438-1.9648 5.9805-4.7734l6.7266-29.602h9.6914v6.25c-2.5859 0-4.6875 2.1016-4.6875 4.6875v3.125c0 2.5859 2.1016 4.6875 4.6875 4.6875h1.5625v10.938c0 2.5859 2.1016 4.6875 4.6875 4.6875s4.6875-2.1016 4.6875-4.6875v-10.938h18.75v10.938c0 2.5859 2.1016 4.6875 4.6875 4.6875s4.6875-2.1016 4.6875-4.6875v-10.938h1.5625c2.5859 0 4.6875-2.1016 4.6875-4.6875v-3.125c0-2.5859-2.1016-4.6875-4.6875-4.6875v-6.25h9.6914l6.7266 29.602c0.63672 2.8125 3.0977 4.7734 5.9805 4.7734 1.875 0 3.625-0.83984 4.793-2.3086 1.1719-1.4648 1.6016-3.3555 1.1875-5.1836l-6.1094-26.883h4.293c1.7227 0 3.125-1.4023 3.125-3.125v-6.25c0-1.7227-1.4023-3.125-3.125-3.125zm-64.062-4.6875c0-9.4766 7.7109-17.188 17.188-17.188 4.6016 0 8.918 1.7852 12.16 5.0273 3.2422 3.2422 5.0273 7.5625 5.0273 12.16v4.6875h-34.375zm-9.375 4.6875h-6.25v-6.25h6.25zm-10.938-15.625h6.25v6.25h-6.25zm-4.6875 9.375h6.25v6.25h-6.25zm2.4102 47.656c-0.3125 1.3789-1.5195 2.3438-2.9336 2.3438-0.92187 0-1.7773-0.41016-2.3516-1.1328-0.57422-0.71875-0.78516-1.6445-0.58203-2.543l6.2656-27.574h6.168l-6.5703 28.906zm27.277 0.78125c0 0.86328-0.69922 1.5625-1.5625 1.5625s-1.5625-0.69922-1.5625-1.5625v-10.938h3.125zm28.125 0c0 0.86328-0.69922 1.5625-1.5625 1.5625s-1.5625-0.69922-1.5625-1.5625v-10.938h3.125zm6.25-18.75v3.125c0 0.86328-0.69922 1.5625-1.5625 1.5625h-40.625c-0.86328 0-1.5625-0.69922-1.5625-1.5625v-3.125c0-0.86328 0.69922-1.5625 1.5625-1.5625h40.625c0.86328 0 1.5625 0.69922 1.5625 1.5625zm-4.6875-4.6875h-34.375v-6.25h34.375zm28.457 21.324c0.20312 0.89844-0.007812 1.8242-0.58203 2.543s-1.4336 1.1328-2.3516 1.1328c-1.4141 0-2.6211-0.96094-2.9336-2.3438l-6.5703-28.906h6.168l6.2656 27.574zm-92.52-30.699v-6.25h93.75l0.003906 6.25z"/></svg>