<svg xmlns:inkscape="http://www.inkscape.org/namespaces/inkscape" xmlns:sodipodi="http://sodipodi.sourceforge.net/DTD/sodipodi-0.dtd" xmlns="http://www.w3.org/2000/svg" xmlns:svg="http://www.w3.org/2000/svg" version="1.1" x="0px" y="0px" viewBox="0 0 100 125" style="enable-background:new 0 0 100 100;" xml:space="preserve"><path d="m 52.491,73.644 h -4.983 c -1.659,0 -3.01,-1.351 -3.01,-3.01 v -2.508 c -1.19,-0.359 -2.338,-0.835 -3.428,-1.42 l -1.772,1.778 c -1.177,1.165 -3.082,1.167 -4.255,0.004 L 31.515,64.959 C 30.35,63.784 30.35,61.877 31.512,60.705 l 1.781,-1.776 c -0.585,-1.09 -1.061,-2.238 -1.42,-3.428 h -2.507 c -1.66,0 -3.011,-1.351 -3.011,-3.01 v -4.982 c 0,-1.659 1.351,-3.01 3.011,-3.01 h 2.507 c 0.359,-1.189 0.835,-2.338 1.42,-3.428 L 31.516,39.299 C 30.35,38.123 30.35,36.216 31.512,35.044 l 3.528,-3.529 c 1.176,-1.165 3.082,-1.165 4.254,-0.003 l 1.776,1.782 c 1.09,-0.585 2.237,-1.061 3.428,-1.42 v -2.508 c 0,-1.659 1.351,-3.01 3.01,-3.01 h 4.983 c 1.659,0 3.01,1.351 3.01,3.01 v 2.508 c 1.19,0.359 2.338,0.835 3.428,1.42 l 1.772,-1.778 c 1.177,-1.165 3.082,-1.166 4.255,-0.004 l 3.528,3.529 c 1.166,1.175 1.166,3.082 0.003,4.254 l -1.781,1.776 c 0.585,1.09 1.061,2.238 1.42,3.428 h 2.507 c 1.66,0 3.011,1.351 3.011,3.01 v 4.982 c 0,1.659 -1.351,3.01 -3.011,3.01 h -2.507 c -0.359,1.189 -0.835,2.338 -1.42,3.428 l 1.777,1.772 c 1.167,1.176 1.167,3.083 0.004,4.255 l -3.528,3.529 c -1.175,1.165 -3.081,1.166 -4.254,0.003 l -1.776,-1.782 c -1.09,0.585 -2.237,1.061 -3.428,1.42 v 2.508 c 0,1.659 -1.351,3.01 -3.01,3.01 z M 40.899,64.462 c 0.175,0 0.352,0.046 0.51,0.14 1.348,0.799 2.808,1.403 4.339,1.798 0.441,0.114 0.75,0.513 0.75,0.969 v 3.266 c 0,0.557 0.453,1.01 1.01,1.01 h 4.983 c 0.557,0 1.01,-0.453 1.01,-1.01 v -3.266 c 0,-0.456 0.309,-0.854 0.75,-0.969 1.531,-0.395 2.991,-0.999 4.339,-1.798 0.393,-0.231 0.896,-0.169 1.218,0.154 l 2.31,2.316 c 0.391,0.388 1.034,0.388 1.431,-0.004 l 3.522,-3.523 c 0.39,-0.393 0.39,-1.036 -0.003,-1.432 l -2.312,-2.305 c -0.323,-0.322 -0.388,-0.824 -0.154,-1.217 0.799,-1.352 1.404,-2.812 1.798,-4.341 0.114,-0.441 0.513,-0.75 0.969,-0.75 h 3.265 c 0.558,0 1.011,-0.453 1.011,-1.01 v -4.982 c 0,-0.557 -0.453,-1.01 -1.011,-1.01 h -3.265 c -0.456,0 -0.854,-0.309 -0.969,-0.75 -0.394,-1.529 -0.999,-2.989 -1.798,-4.341 -0.233,-0.393 -0.169,-0.895 0.154,-1.217 l 2.315,-2.309 C 67.46,37.489 67.46,36.846 67.067,36.45 l -3.522,-3.523 c -0.393,-0.39 -1.035,-0.389 -1.432,0.003 l -2.306,2.313 c -0.321,0.324 -0.825,0.388 -1.218,0.154 C 57.241,34.598 55.781,33.994 54.25,33.599 53.809,33.485 53.5,33.086 53.5,32.63 v -3.266 c 0,-0.557 -0.453,-1.01 -1.01,-1.01 h -4.983 c -0.557,0 -1.01,0.453 -1.01,1.01 v 3.266 c 0,0.456 -0.309,0.854 -0.75,0.969 -1.531,0.395 -2.991,0.999 -4.339,1.798 -0.392,0.233 -0.895,0.17 -1.218,-0.154 l -2.31,-2.316 c -0.392,-0.388 -1.035,-0.388 -1.431,0.004 l -3.522,3.523 c -0.389,0.393 -0.389,1.036 0.003,1.432 l 2.312,2.305 c 0.323,0.322 0.388,0.824 0.154,1.217 -0.799,1.352 -1.404,2.812 -1.798,4.341 -0.114,0.441 -0.513,0.75 -0.969,0.75 h -3.265 c -0.558,0 -1.011,0.453 -1.011,1.01 v 4.982 c 0,0.557 0.453,1.01 1.011,1.01 h 3.265 c 0.456,0 0.854,0.309 0.969,0.75 0.394,1.529 0.999,2.989 1.798,4.341 0.233,0.393 0.169,0.895 -0.154,1.217 l -2.315,2.309 c -0.388,0.392 -0.388,1.035 0.004,1.431 l 3.522,3.523 c 0.394,0.39 1.036,0.389 1.432,-0.003 l 2.306,-2.313 c 0.193,-0.193 0.45,-0.294 0.708,-0.294 z M 50,64.194 c -7.827,0 -14.195,-6.367 -14.195,-14.194 0,-7.827 6.368,-14.194 14.195,-14.194 7.827,0 14.194,6.367 14.194,14.194 0,7.827 -6.367,14.194 -14.194,14.194 z m 0,-26.388 c -6.725,0 -12.195,5.471 -12.195,12.194 0,6.723 5.47,12.194 12.195,12.194 6.724,0 12.194,-5.471 12.194,-12.194 0,-6.723 -5.47,-12.194 -12.194,-12.194 z"/><path d="m 49.995,14.069 c -3.047,0 -5.525,-2.483 -5.525,-5.535 0,-3.047 2.479,-5.525 5.525,-5.525 3.052,0 5.534,2.479 5.534,5.525 0,3.052 -2.482,5.535 -5.534,5.535 z m 0,-9.06 c -1.944,0 -3.525,1.581 -3.525,3.525 0,1.949 1.581,3.535 3.525,3.535 1.949,0 3.534,-1.586 3.534,-3.535 0,-1.944 -1.585,-3.525 -3.534,-3.525 z"/><path d="M 56.065,20.131 H 43.934 c -0.553,0 -1,-0.447 -1,-1 0,-3.894 3.168,-7.062 7.062,-7.062 3.898,0 7.07,3.168 7.07,7.062 -0.001,0.553 -0.448,1 -1.001,1 z m -11.032,-2 h 9.933 c -0.466,-2.313 -2.518,-4.062 -4.971,-4.062 -2.448,0 -4.497,1.748 -4.962,4.062 z"/><path d="m 49.995,90.93 c -3.047,0 -5.525,-2.483 -5.525,-5.535 0,-3.047 2.479,-5.525 5.525,-5.525 3.052,0 5.534,2.479 5.534,5.525 0,3.051 -2.482,5.535 -5.534,5.535 z m 0,-9.061 c -1.944,0 -3.525,1.581 -3.525,3.525 0,1.949 1.581,3.535 3.525,3.535 1.949,0 3.534,-1.586 3.534,-3.535 0,-1.944 -1.585,-3.525 -3.534,-3.525 z"/><path d="M 56.065,96.991 H 43.934 c -0.553,0 -1,-0.447 -1,-1 0,-3.894 3.168,-7.062 7.062,-7.062 3.898,0 7.07,3.168 7.07,7.062 -0.001,0.553 -0.448,1 -1.001,1 z m -11.032,-2 h 9.933 c -0.466,-2.313 -2.518,-4.062 -4.971,-4.062 -2.448,0.001 -4.497,1.749 -4.962,4.062 z"/><path d="m 77.169,25.325 c -3.047,0 -5.525,-2.483 -5.525,-5.535 0,-3.047 2.479,-5.525 5.525,-5.525 3.052,0 5.535,2.479 5.535,5.525 0,3.052 -2.483,5.535 -5.535,5.535 z m 0,-9.06 c -1.944,0 -3.525,1.581 -3.525,3.525 0,1.949 1.581,3.535 3.525,3.535 1.949,0 3.535,-1.586 3.535,-3.535 0,-1.944 -1.586,-3.525 -3.535,-3.525 z"/><path d="M 83.24,31.387 H 71.107 c -0.553,0 -1,-0.447 -1,-1 0,-3.894 3.168,-7.062 7.062,-7.062 3.899,0 7.071,3.168 7.071,7.062 0,0.552 -0.447,1 -1,1 z m -11.033,-2 h 9.934 c -0.466,-2.313 -2.519,-4.062 -4.972,-4.062 -2.448,0 -4.497,1.748 -4.962,4.062 z"/><path d="m 22.821,79.674 c -3.047,0 -5.526,-2.483 -5.526,-5.535 0,-3.047 2.479,-5.525 5.525,-5.525 3.052,0 5.535,2.479 5.535,5.525 0,3.051 -2.482,5.535 -5.534,5.535 z M 22.82,70.613 c -1.944,0 -3.525,1.581 -3.525,3.525 0,1.949 1.582,3.535 3.526,3.535 1.949,0 3.535,-1.586 3.535,-3.535 -0.001,-1.944 -1.586,-3.525 -3.536,-3.525 z"/><path d="M 28.892,85.735 H 16.759 c -0.552,0 -1,-0.447 -1,-1 0,-3.894 3.168,-7.062 7.062,-7.062 3.899,0 7.071,3.168 7.071,7.062 0,0.553 -0.448,1 -1,1 z m -11.034,-2 h 9.934 c -0.466,-2.313 -2.518,-4.062 -4.971,-4.062 -2.449,0.001 -4.497,1.749 -4.963,4.062 z"/><path d="m 88.426,52.499 c -3.047,0 -5.525,-2.483 -5.525,-5.535 0,-3.047 2.479,-5.525 5.525,-5.525 3.051,0 5.534,2.479 5.535,5.526 v 0 c 0,3.052 -2.483,5.534 -5.535,5.534 z m 0,-9.061 c -1.944,0 -3.525,1.581 -3.525,3.525 0,1.949 1.581,3.535 3.525,3.535 1.949,0 3.535,-1.585 3.535,-3.534 -0.001,-1.943 -1.587,-3.526 -3.535,-3.526 z"/><path d="M 94.497,58.561 H 82.364 c -0.553,0 -1,-0.447 -1,-1 0,-3.894 3.168,-7.062 7.062,-7.062 3.899,0 7.071,3.168 7.071,7.062 0,0.552 -0.447,1 -1,1 z m -11.033,-2 h 9.934 c -0.466,-2.313 -2.519,-4.062 -4.972,-4.062 -2.448,0 -4.497,1.748 -4.962,4.062 z"/><path d="m 11.564,52.499 c -3.047,0 -5.525,-2.483 -5.525,-5.535 0,-3.047 2.479,-5.525 5.525,-5.525 3.052,0 5.535,2.479 5.535,5.525 0,3.052 -2.483,5.535 -5.535,5.535 z m 0,-9.061 c -1.944,0 -3.525,1.581 -3.525,3.525 0,1.949 1.582,3.535 3.525,3.535 1.949,0 3.535,-1.586 3.535,-3.535 0,-1.943 -1.585,-3.525 -3.535,-3.525 z"/><path d="M 17.635,58.561 H 5.503 c -0.552,0 -1,-0.447 -1,-1 0,-3.894 3.168,-7.062 7.062,-7.062 3.899,0 7.071,3.168 7.071,7.062 -10e-4,0.552 -0.448,1 -1.001,1 z m -11.033,-2 h 9.934 c -0.466,-2.313 -2.518,-4.062 -4.971,-4.062 -2.449,0 -4.498,1.748 -4.963,4.062 z"/><path d="m 77.169,79.675 c -3.047,0 -5.525,-2.483 -5.525,-5.535 0,-3.047 2.479,-5.525 5.525,-5.525 3.052,0 5.535,2.479 5.535,5.525 0,3.051 -2.483,5.535 -5.535,5.535 z m 0,-9.061 c -1.944,0 -3.525,1.581 -3.525,3.525 0,1.949 1.581,3.535 3.525,3.535 1.949,0 3.535,-1.586 3.535,-3.535 0,-1.944 -1.586,-3.525 -3.535,-3.525 z"/><path d="M 83.24,85.736 H 71.107 c -0.553,0 -1,-0.447 -1,-1 0,-3.894 3.168,-7.062 7.062,-7.062 3.899,0 7.071,3.168 7.071,7.062 0,0.553 -0.447,1 -1,1 z m -11.033,-2 h 9.934 c -0.466,-2.313 -2.519,-4.062 -4.972,-4.062 -2.448,10e-4 -4.497,1.749 -4.962,4.062 z"/><path d="m 22.82,25.325 c -3.047,0 -5.525,-2.482 -5.525,-5.534 0,-3.047 2.479,-5.526 5.525,-5.526 3.052,0 5.535,2.479 5.535,5.526 -0.001,3.052 -2.483,5.534 -5.535,5.534 z m 0,-9.06 c -1.944,0 -3.525,1.582 -3.525,3.526 0,1.949 1.582,3.534 3.525,3.534 1.949,0 3.535,-1.585 3.535,-3.534 -0.001,-1.944 -1.586,-3.526 -3.535,-3.526 z"/><path d="M 28.891,31.387 H 16.758 c -0.552,0 -1,-0.447 -1,-1 0,-3.894 3.168,-7.062 7.062,-7.062 3.899,0 7.071,3.168 7.071,7.062 0,0.552 -0.448,1 -1,1 z m -11.034,-2 h 9.934 c -0.466,-2.313 -2.518,-4.062 -4.971,-4.062 -2.449,0 -4.497,1.748 -4.963,4.062 z"/><path d="m 46.588592,57.220017 c -0.296342,0 -0.592694,-0.123156 -0.818416,-0.368215 L 42.525475,53.32926 c -0.452633,-0.491375 -0.452633,-1.285615 0,-1.77699 0.452623,-0.491374 1.184188,-0.491374 1.636821,0 l 2.426296,2.634048 9.24911,-10.039804 c 0.452633,-0.491374 1.184199,-0.491374 1.636831,0 0.452623,0.491375 0.452623,1.285615 0,1.776971 L 47.407007,56.851802 c -0.225741,0.245059 -0.522074,0.368215 -0.818415,0.368215 z" style="" stroke-width="1.20608"/></svg>