<svg xmlns="http://www.w3.org/2000/svg" version="1.1" viewBox="-5.0 -10.0 110.0 135.0">
 <path d="m50 11.5c-21.23 0-38.5 17.27-38.5 38.5s17.27 38.5 38.5 38.5 38.5-17.27 38.5-38.5-17.27-38.5-38.5-38.5zm-36.5 38.5c0-20.129 16.371-36.5 36.5-36.5s36.5 16.371 36.5 36.5c0 8.6016-3 16.52-8 22.762v-15.289c0-4.7305-2.5-9.0898-6.4805-11.52 2.5195-2.0703 3.9805-5.1289 3.9805-8.4609 0-6.0703-4.9297-11-11-11s-11 4.9297-11 11c0 3.3281 1.4609 6.3789 3.9805 8.4609-3.7188 2.2695-6.1406 6.2188-6.4414 10.578-0.5-0.10156-1.0117-0.14844-1.5312-0.14844-0.80078 0-1.5703 0.12109-2.3008 0.33984-0.89844-1.25-2-2.3398-3.2891-3.1797 2.5586-2.0703 4.0898-5.2188 4.0898-8.5508 0-6.0703-4.9297-11-11-11-6.0703 0-11 4.9297-11 11 0 3.3281 1.5312 6.4688 4.0898 8.5508-2.9805 1.9609-5 5.1016-5.5195 8.6797l-1.8281 12.559c-6.0391-6.5117-9.7383-15.219-9.7383-24.781zm20.461 18.469c1.1016 4.4219 4 8.1914 7.9805 10.422v6.6992c-6.4609-1.4609-12.281-4.6406-16.941-9.0391l2.0508-14.039c0.51172-3.4688 2.6914-6.4609 5.8516-7.9883 0.32812-0.16016 0.55078-0.48828 0.55859-0.85938 0.011718-0.37109-0.17969-0.71875-0.48828-0.89844-2.7617-1.6094-4.4688-4.5898-4.4688-7.7695 0-4.9609 4.0391-9 9-9 4.9609 0 9 4.0391 9 9 0 3.1797-1.7109 6.1484-4.4688 7.7695-0.32031 0.19141-0.51172 0.53125-0.48828 0.89844 0.011719 0.37109 0.23047 0.69922 0.55859 0.85938 1.4688 0.71094 2.7305 1.7617 3.7305 3.0391-2.3203 1.4219-3.8789 3.9688-3.8789 6.8789 0 2.3984 1.0703 4.6484 2.8789 6.1719-0.35156 0.28906-0.67188 0.60938-0.96094 0.94922-1.4805-1.2812-2.5312-2.9805-2.9883-4.8789-0.39062-1.5898-1.8086-2.7109-3.4609-2.7109-1.1016 0-2.1211 0.5-2.8008 1.3594-0.69141 0.87891-0.92969 2.0195-0.66016 3.1211zm9.9805 17.52v-7.6992c0-0.37891-0.21094-0.71875-0.53906-0.89062-3.75-1.9219-6.4805-5.3516-7.5-9.4219-0.12109-0.5-0.019532-1.0117 0.28906-1.3984 0.30078-0.37891 0.73047-0.60156 1.2188-0.60156 0.71875 0 1.3398 0.48828 1.5117 1.1797 0.66016 2.6797 2.2695 5.0391 4.5586 6.6406 0.21875 0.16016 0.5 0.21875 0.76953 0.16016 0.26953-0.050781 0.5-0.21094 0.64844-0.44141 0.53906-0.83984 1.2891-1.5508 2.1602-2.0391 0.32031-0.17969 0.51172-0.51172 0.51172-0.87109s-0.19922-0.69922-0.51172-0.87109c-1.9219-1.0703-3.1211-3.1016-3.1211-5.2891 0-3.3398 2.7188-6.0586 6.0586-6.0586s6.0586 2.7188 6.0586 6.0586c0 2.1992-1.1914 4.2188-3.1211 5.2891-0.32031 0.17969-0.51172 0.51172-0.51172 0.87109s0.19922 0.69922 0.51172 0.87109c0.87109 0.48828 1.6211 1.1914 2.1602 2.0391 0.14844 0.23047 0.37891 0.39062 0.64844 0.44141 0.26953 0.058594 0.53906 0 0.76953-0.16016 2.2812-1.5898 3.8984-3.9492 4.5586-6.6406 0.17188-0.69922 0.78906-1.1797 1.5117-1.1797 0.48828 0 0.92188 0.21094 1.2188 0.60156 0.30859 0.39844 0.42188 0.91016 0.28906 1.3984-1.0117 4.0586-3.75 7.5-7.5 9.4219-0.32812 0.17187-0.53906 0.51172-0.53906 0.89062v7.6992c-1.9688 0.32812-3.9883 0.51172-6.0586 0.51172-2.0703 0-4.0898-0.17969-6.0586-0.51172zm14.117-0.39844v-6.6992c3.9883-2.2305 6.8789-6 7.9805-10.422 0.26953-1.1016 0.03125-2.2305-0.66016-3.1211-0.67969-0.87109-1.6992-1.3594-2.8008-1.3594-1.6406 0-3.0586 1.1094-3.4609 2.7109-0.46094 1.8984-1.5117 3.6016-2.9883 4.8789-0.28906-0.33984-0.60938-0.66016-0.96094-0.94922 1.8008-1.5195 2.8789-3.7695 2.8789-6.1719 0-3.1797-1.8594-5.9414-4.5508-7.2383 0.10938-4.4102 2.7383-8.3906 6.7812-10.211 0.33984-0.14844 0.57031-0.48047 0.58984-0.85156 0.019531-0.37109-0.17188-0.71875-0.48828-0.92188-2.75-1.6484-4.3984-4.5312-4.3984-7.7188 0-4.9609 4.0391-9 9-9 4.9609 0 9 4.0391 9 9 0 3.1914-1.6406 6.0781-4.3984 7.7188-0.32031 0.19141-0.51172 0.53906-0.48828 0.92188 0.019531 0.37109 0.25 0.69922 0.58984 0.85156 4.1289 1.8594 6.7891 5.9688 6.7891 10.48v17.578c-4.8906 5.1719-11.27 8.9102-18.441 10.531z"/></svg>