<svg xmlns="http://www.w3.org/2000/svg" xmlns:xlink="http://www.w3.org/1999/xlink" width="300"
  zoomAndPan="magnify" viewBox="23.238281 23.296875 178.402344 178.40625" height="300"
  preserveAspectRatio="xMidYMid meet" version="1.0">
  <path fill="#02679a"
    d="M 201.640625 112.5 C 201.640625 113.960938 201.605469 115.417969 201.535156 116.878906 C 201.464844 118.335938 201.355469 119.789062 201.210938 121.242188 C 201.070312 122.695312 200.890625 124.144531 200.675781 125.589844 C 200.460938 127.03125 200.214844 128.472656 199.929688 129.902344 C 199.644531 131.335938 199.324219 132.757812 198.96875 134.175781 C 198.613281 135.589844 198.226562 136.996094 197.800781 138.394531 C 197.378906 139.792969 196.917969 141.175781 196.429688 142.550781 C 195.9375 143.925781 195.410156 145.289062 194.851562 146.636719 C 194.292969 147.984375 193.703125 149.320312 193.078125 150.640625 C 192.453125 151.957031 191.796875 153.261719 191.109375 154.550781 C 190.421875 155.835938 189.703125 157.105469 188.953125 158.359375 C 188.199219 159.613281 187.421875 160.84375 186.609375 162.058594 C 185.796875 163.273438 184.957031 164.464844 184.089844 165.636719 C 183.21875 166.808594 182.320312 167.960938 181.394531 169.089844 C 180.46875 170.21875 179.515625 171.324219 178.535156 172.40625 C 177.554688 173.488281 176.546875 174.542969 175.515625 175.574219 C 174.484375 176.609375 173.425781 177.613281 172.34375 178.59375 C 171.261719 179.574219 170.15625 180.527344 169.03125 181.453125 C 167.902344 182.378906 166.75 183.277344 165.578125 184.148438 C 164.40625 185.019531 163.210938 185.859375 162 186.667969 C 160.785156 187.480469 159.550781 188.261719 158.300781 189.011719 C 157.046875 189.761719 155.777344 190.480469 154.488281 191.167969 C 153.203125 191.859375 151.898438 192.515625 150.578125 193.136719 C 149.257812 193.761719 147.925781 194.355469 146.578125 194.914062 C 145.226562 195.472656 143.867188 195.996094 142.492188 196.488281 C 141.117188 196.980469 139.730469 197.4375 138.335938 197.863281 C 136.9375 198.285156 135.53125 198.675781 134.113281 199.027344 C 132.699219 199.382812 131.273438 199.703125 129.84375 199.988281 C 128.410156 200.273438 126.972656 200.523438 125.527344 200.738281 C 124.085938 200.949219 122.636719 201.128906 121.183594 201.273438 C 119.730469 201.414062 118.273438 201.523438 116.816406 201.59375 C 115.359375 201.667969 113.898438 201.703125 112.441406 201.703125 C 110.980469 201.703125 109.519531 201.667969 108.0625 201.59375 C 106.605469 201.523438 105.148438 201.414062 103.695312 201.273438 C 102.242188 201.128906 100.796875 200.949219 99.351562 200.738281 C 97.90625 200.523438 96.46875 200.273438 95.039062 199.988281 C 93.605469 199.703125 92.183594 199.382812 90.765625 199.027344 C 89.347656 198.675781 87.941406 198.285156 86.546875 197.863281 C 85.148438 197.4375 83.761719 196.980469 82.386719 196.488281 C 81.015625 195.996094 79.652344 195.472656 78.304688 194.914062 C 76.953125 194.355469 75.621094 193.761719 74.300781 193.136719 C 72.980469 192.515625 71.679688 191.859375 70.390625 191.167969 C 69.101562 190.480469 67.832031 189.761719 66.582031 189.011719 C 65.328125 188.261719 64.09375 187.480469 62.882812 186.667969 C 61.667969 185.859375 60.476562 185.019531 59.300781 184.148438 C 58.128906 183.277344 56.980469 182.378906 55.851562 181.453125 C 54.722656 180.527344 53.617188 179.574219 52.535156 178.59375 C 51.453125 177.613281 50.398438 176.609375 49.363281 175.574219 C 48.332031 174.542969 47.324219 173.488281 46.34375 172.40625 C 45.363281 171.324219 44.410156 170.21875 43.484375 169.089844 C 42.558594 167.960938 41.660156 166.808594 40.792969 165.636719 C 39.921875 164.464844 39.082031 163.273438 38.269531 162.058594 C 37.460938 160.84375 36.679688 159.613281 35.929688 158.359375 C 35.179688 157.105469 34.457031 155.835938 33.769531 154.550781 C 33.082031 153.261719 32.425781 151.957031 31.800781 150.640625 C 31.179688 149.320312 30.585938 147.984375 30.027344 146.636719 C 29.46875 145.289062 28.945312 143.925781 28.453125 142.550781 C 27.960938 141.175781 27.503906 139.792969 27.078125 138.394531 C 26.65625 136.996094 26.265625 135.589844 25.910156 134.175781 C 25.554688 132.757812 25.238281 131.335938 24.953125 129.902344 C 24.667969 128.472656 24.417969 127.03125 24.203125 125.589844 C 23.988281 124.144531 23.808594 122.695312 23.667969 121.242188 C 23.523438 119.789062 23.417969 118.335938 23.34375 116.878906 C 23.273438 115.417969 23.238281 113.960938 23.238281 112.5 C 23.238281 111.039062 23.273438 109.582031 23.34375 108.125 C 23.417969 106.664062 23.523438 105.210938 23.667969 103.757812 C 23.808594 102.304688 23.988281 100.855469 24.203125 99.410156 C 24.417969 97.96875 24.667969 96.53125 24.953125 95.097656 C 25.238281 93.664062 25.554688 92.242188 25.910156 90.824219 C 26.265625 89.410156 26.65625 88.003906 27.078125 86.605469 C 27.503906 85.207031 27.960938 83.824219 28.453125 82.449219 C 28.945312 81.074219 29.46875 79.710938 30.027344 78.363281 C 30.585938 77.015625 31.179688 75.679688 31.800781 74.359375 C 32.425781 73.042969 33.082031 71.738281 33.769531 70.449219 C 34.457031 69.164062 35.179688 67.894531 35.929688 66.640625 C 36.679688 65.386719 37.460938 64.15625 38.269531 62.941406 C 39.082031 61.726562 39.921875 60.535156 40.792969 59.363281 C 41.660156 58.191406 42.558594 57.039062 43.484375 55.910156 C 44.410156 54.78125 45.363281 53.675781 46.34375 52.59375 C 47.324219 51.515625 48.332031 50.457031 49.363281 49.425781 C 50.398438 48.390625 51.453125 47.386719 52.535156 46.40625 C 53.617188 45.425781 54.722656 44.472656 55.851562 43.546875 C 56.980469 42.621094 58.128906 41.722656 59.300781 40.851562 C 60.476562 39.980469 61.667969 39.140625 62.882812 38.332031 C 64.09375 37.519531 65.328125 36.738281 66.582031 35.988281 C 67.832031 35.238281 69.101562 34.519531 70.390625 33.832031 C 71.679688 33.140625 72.980469 32.484375 74.300781 31.863281 C 75.621094 31.238281 76.953125 30.644531 78.304688 30.085938 C 79.652344 29.527344 81.015625 29.003906 82.386719 28.511719 C 83.761719 28.019531 85.148438 27.5625 86.546875 27.136719 C 87.941406 26.714844 89.347656 26.324219 90.765625 25.972656 C 92.183594 25.617188 93.605469 25.296875 95.039062 25.011719 C 96.46875 24.726562 97.90625 24.476562 99.351562 24.261719 C 100.796875 24.050781 102.242188 23.871094 103.695312 23.726562 C 105.148438 23.585938 106.605469 23.476562 108.0625 23.40625 C 109.519531 23.332031 110.980469 23.296875 112.441406 23.296875 C 113.898438 23.296875 115.359375 23.332031 116.816406 23.40625 C 118.273438 23.476562 119.730469 23.585938 121.183594 23.726562 C 122.636719 23.871094 124.085938 24.050781 125.527344 24.261719 C 126.972656 24.476562 128.410156 24.726562 129.84375 25.011719 C 131.273438 25.296875 132.699219 25.617188 134.113281 25.972656 C 135.53125 26.324219 136.9375 26.714844 138.335938 27.136719 C 139.730469 27.5625 141.117188 28.019531 142.492188 28.511719 C 143.867188 29.003906 145.226562 29.527344 146.578125 30.085938 C 147.925781 30.644531 149.257812 31.238281 150.578125 31.863281 C 151.898438 32.484375 153.203125 33.140625 154.488281 33.832031 C 155.777344 34.519531 157.046875 35.238281 158.300781 35.988281 C 159.550781 36.738281 160.785156 37.519531 162 38.332031 C 163.210938 39.140625 164.40625 39.980469 165.578125 40.851562 C 166.75 41.722656 167.902344 42.621094 169.03125 43.546875 C 170.15625 44.472656 171.261719 45.425781 172.34375 46.40625 C 173.425781 47.386719 174.484375 48.390625 175.515625 49.425781 C 176.546875 50.457031 177.554688 51.515625 178.535156 52.59375 C 179.515625 53.675781 180.46875 54.78125 181.394531 55.910156 C 182.320312 57.039062 183.21875 58.191406 184.089844 59.363281 C 184.957031 60.535156 185.796875 61.726562 186.609375 62.941406 C 187.421875 64.15625 188.199219 65.386719 188.953125 66.640625 C 189.703125 67.894531 190.421875 69.164062 191.109375 70.449219 C 191.796875 71.738281 192.453125 73.042969 193.078125 74.359375 C 193.703125 75.679688 194.292969 77.015625 194.851562 78.363281 C 195.410156 79.710938 195.9375 81.074219 196.429688 82.449219 C 196.917969 83.824219 197.378906 85.207031 197.800781 86.605469 C 198.226562 88.003906 198.613281 89.410156 198.96875 90.824219 C 199.324219 92.242188 199.644531 93.664062 199.929688 95.097656 C 200.214844 96.53125 200.460938 97.96875 200.675781 99.410156 C 200.890625 100.855469 201.070312 102.304688 201.210938 103.757812 C 201.355469 105.210938 201.464844 106.664062 201.535156 108.125 C 201.605469 109.582031 201.640625 111.039062 201.640625 112.5 Z M 201.640625 112.5 "
    fill-opacity="1" fill-rule="nonzero" />
  <path fill="#ffffff"
    d="M 112.441406 59.578125 C 98.078125 59.578125 96.25 59.636719 90.613281 59.90625 C 84.976562 60.179688 81.136719 61.046875 77.777344 62.367188 C 74.300781 63.714844 71.332031 65.515625 68.394531 68.484375 C 65.453125 71.421875 63.65625 74.390625 62.277344 77.867188 C 60.957031 81.226562 60.058594 85.09375 59.816406 90.703125 C 59.578125 96.339844 59.488281 98.136719 59.488281 112.53125 C 59.488281 126.890625 59.546875 128.691406 59.816406 134.359375 C 60.089844 139.996094 60.957031 143.832031 62.277344 147.191406 C 63.625 150.667969 65.425781 153.636719 68.394531 156.578125 C 71.332031 159.515625 74.300781 161.34375 77.777344 162.691406 C 81.136719 164.011719 85.003906 164.882812 90.613281 165.152344 C 96.25 165.421875 98.046875 165.480469 112.441406 165.480469 C 126.800781 165.480469 128.601562 165.421875 134.269531 165.152344 C 139.90625 164.882812 143.742188 164.011719 147.132812 162.691406 C 150.609375 161.34375 153.546875 159.515625 156.488281 156.578125 C 159.425781 153.636719 161.222656 150.667969 162.601562 147.191406 C 163.890625 143.832031 164.792969 139.996094 165.0625 134.359375 C 165.300781 128.722656 165.390625 126.921875 165.390625 112.53125 C 165.390625 98.167969 165.332031 96.367188 165.0625 90.703125 C 164.792969 85.066406 163.890625 81.226562 162.601562 77.867188 C 161.253906 74.390625 159.425781 71.421875 156.488281 68.484375 C 153.546875 65.546875 150.609375 63.746094 147.101562 62.367188 C 143.714844 61.046875 139.875 60.179688 134.238281 59.90625 C 128.601562 59.636719 126.800781 59.578125 112.441406 59.578125 Z M 107.703125 69.113281 C 109.113281 69.113281 110.671875 69.113281 112.441406 69.113281 C 126.5625 69.113281 128.242188 69.171875 133.820312 69.414062 C 138.976562 69.652344 141.765625 70.523438 143.652344 71.242188 C 146.113281 72.203125 147.882812 73.339844 149.738281 75.199219 C 151.597656 77.058594 152.738281 78.828125 153.699219 81.285156 C 154.417969 83.144531 155.289062 85.964844 155.527344 91.121094 C 155.765625 96.699219 155.828125 98.378906 155.828125 112.5 C 155.828125 126.621094 155.765625 128.300781 155.527344 133.878906 C 155.289062 139.035156 154.417969 141.824219 153.699219 143.714844 C 152.738281 146.171875 151.597656 147.941406 149.738281 149.800781 C 147.882812 151.660156 146.140625 152.796875 143.652344 153.757812 C 141.792969 154.476562 138.976562 155.347656 133.820312 155.585938 C 128.242188 155.828125 126.5625 155.886719 112.441406 155.886719 C 98.316406 155.886719 96.636719 155.828125 91.0625 155.585938 C 85.902344 155.347656 83.117188 154.476562 81.226562 153.757812 C 78.769531 152.796875 77 151.660156 75.140625 149.800781 C 73.28125 147.941406 72.140625 146.171875 71.183594 143.714844 C 70.460938 141.855469 69.59375 139.035156 69.351562 133.878906 C 69.113281 128.300781 69.054688 126.621094 69.054688 112.5 C 69.054688 98.378906 69.113281 96.699219 69.351562 91.121094 C 69.59375 85.964844 70.460938 83.175781 71.183594 81.285156 C 72.140625 78.828125 73.28125 77.058594 75.140625 75.199219 C 77 73.339844 78.769531 72.203125 81.226562 71.242188 C 83.085938 70.523438 85.902344 69.652344 91.0625 69.414062 C 95.949219 69.171875 97.835938 69.113281 107.703125 69.113281 Z M 140.683594 77.898438 C 137.175781 77.898438 134.328125 80.746094 134.328125 84.253906 C 134.328125 87.761719 137.175781 90.613281 140.683594 90.613281 C 144.191406 90.613281 147.042969 87.761719 147.042969 84.253906 C 147.042969 80.746094 144.191406 77.898438 140.683594 77.898438 Z M 112.441406 85.335938 C 97.417969 85.335938 85.273438 97.507812 85.273438 112.5 C 85.273438 127.523438 97.449219 139.664062 112.441406 139.664062 C 127.460938 139.664062 139.605469 127.492188 139.605469 112.5 C 139.605469 97.476562 127.460938 85.335938 112.441406 85.335938 Z M 112.441406 94.871094 C 122.183594 94.871094 130.070312 102.753906 130.070312 112.5 C 130.070312 122.246094 122.183594 130.128906 112.441406 130.128906 C 102.695312 130.128906 94.808594 122.246094 94.808594 112.5 C 94.808594 102.753906 102.695312 94.871094 112.441406 94.871094 Z M 112.441406 94.871094 "
    fill-opacity="1" fill-rule="nonzero" />
</svg>