<svg xmlns="http://www.w3.org/2000/svg" version="1.1" viewBox="-5.0 -10.0 110.0 135.0">
 <g>
  <path d="m93.75 56.25v-6.25h-18.75v31.25h6.25v-12.5h9.375v-6.25h-9.375v-6.25z"/>
  <path d="m59.375 81.25h-12.5v-31.25h12.5c5.3125 0 9.375 4.0625 9.375 9.375v12.5c0 5.3125-4.0625 9.375-9.375 9.375zm-6.25-6.25h6.25c1.875 0 3.125-1.25 3.125-3.125v-12.5c0-1.875-1.25-3.125-3.125-3.125h-6.25z"/>
  <path d="m34.375 50h-15.625v31.25h6.25v-9.375h9.375c3.4375 0 6.25-2.8125 6.25-6.25v-9.375c0-3.4375-2.8125-6.25-6.25-6.25zm-9.375 15.625v-9.375h9.375v9.375z"/>
  <path d="m68.75 43.75v-12.5c0-0.9375-0.3125-1.5625-0.9375-2.1875l-21.875-21.875c-0.625-0.625-1.25-0.9375-2.1875-0.9375h-31.25c-3.4375 0-6.25 2.8125-6.25 6.25v75c0 3.4375 2.8125 6.25 6.25 6.25h50v-6.25h-50v-75h25v18.75c0 3.4375 2.8125 6.25 6.25 6.25h18.75v6.25zm-25-12.5v-17.5l17.5 17.5z"/>
 </g></svg>