<svg xmlns="http://www.w3.org/2000/svg" xmlns:xlink="http://www.w3.org/1999/xlink" version="1.1" x="0px" y="0px" viewBox="0 0 100 125" style="enable-background:new 0 0 100 100;" xml:space="preserve"><g><path d="M30.74,50.49c-3.3,0-5.99,2.69-5.99,5.99c0,3.3,2.69,5.99,5.99,5.99c3.3,0,5.99-2.69,5.99-5.99   C36.74,53.18,34.05,50.49,30.74,50.49z M30.74,60.12c-2,0-3.64-1.63-3.64-3.64c0-2,1.63-3.64,3.64-3.64c2,0,3.64,1.63,3.64,3.64   C34.38,58.49,32.75,60.12,30.74,60.12z"/><path d="M82.91,85.36h-8.82c-0.69,0-1.32-0.33-1.63-0.87l-15.02-25.5c-0.74-1.25-2.14-2.03-3.67-2.03h-6.12v-9.78   c0-0.06-0.01-0.11-0.02-0.17c0.01-0.05,0.02-0.1,0.02-0.15c0-0.34-0.15-0.65-0.38-0.87c-0.03-0.05-0.06-0.1-0.1-0.14L32.46,28.02   c-0.18-0.22-0.41-0.4-0.66-0.53V22.1c2.49-0.29,5.92-1.69,9-3.72c3.74-2.46,10.66-2.21,10.73-2.21c0.44,0.02,0.85-0.21,1.07-0.59   c0.22-0.38,0.21-0.85-0.03-1.22c-0.13-0.2-3.18-4.78-12.47-4.35c-4.66,0.21-7.1-0.61-8.3-1.29V8.51c1.78-0.54,3.09-2.2,3.09-4.16   c0-2.4-1.95-4.35-4.35-4.35c-2.4,0-4.35,1.95-4.35,4.35c0,2.02,1.38,3.71,3.25,4.2V27.6c-0.17,0.12-0.33,0.26-0.47,0.42   L14.27,45.85c-0.04,0.04-0.06,0.09-0.1,0.14c-0.23,0.22-0.38,0.52-0.38,0.87c0,0.05,0.01,0.1,0.02,0.15c0,0.06-0.02,0.11-0.02,0.17   v51.48c0,0.65,0.53,1.18,1.18,1.18c0.65,0,1.18-0.53,1.18-1.18V66.71l7.1,0.04v6.07v1.2v5.77v1.2v5.77v1.2v5.77v1.2v3.88   c0,0.65,0.53,1.18,1.18,1.18c0.65,0,1.18-0.53,1.18-1.18v-3.3H37.2v3.3c0,0.65,0.53,1.18,1.18,1.18s1.18-0.53,1.18-1.18V66.84   l5.73,0.03v31.79c0,0.65,0.53,1.18,1.18,1.18s1.18-0.53,1.18-1.18V66.92c0.49,0.1,0.93,0.38,1.18,0.77l17.11,26.6   c0.76,1.17,2.13,1.9,3.58,1.9h13.39c1.82,0,3.3-1.4,3.3-3.12v-4.58C86.21,86.76,84.73,85.36,82.91,85.36z M40.21,12.36   c4.05-0.19,6.66,0.66,8.25,1.53c-2.63,0.2-6.33,0.79-8.95,2.52c-2.91,1.91-5.81,3.02-7.7,3.31v-8.4   C33.56,12.02,36.22,12.55,40.21,12.36z M28.56,4.35c0-1.1,0.89-1.99,1.99-1.99c1.1,0,1.99,0.89,1.99,1.99   c0,1.1-0.89,1.99-1.99,1.99C29.45,6.34,28.56,5.44,28.56,4.35z M30.72,29.62l13.25,16.06h-26.5L30.72,29.62z M25.61,81.57H37.2   v4.61H25.61V81.57z M37.2,79.21H25.61V74.6H37.2V79.21z M25.61,93.16v-4.61H37.2v4.61H25.61z M37.2,72.24H25.61v-5.48l11.59,0.06   V72.24z M38.66,64.47c-0.09-0.02-0.18-0.04-0.28-0.04c-0.09,0-0.18,0.01-0.27,0.03l-21.96-0.12V48.04h29.14v16.48L38.66,64.47z    M83.85,93.06c0,0.42-0.43,0.77-0.94,0.77H69.52c-0.66,0-1.28-0.31-1.6-0.82l-17.11-26.6c-0.68-1.06-1.87-1.75-3.16-1.87v-5.23   h6.12c0.69,0,1.32,0.33,1.63,0.87l15.02,25.5c0.74,1.25,2.14,2.03,3.66,2.03h8.82c0.52,0,0.94,0.34,0.94,0.77V93.06z"/></g></svg>