<svg xmlns="http://www.w3.org/2000/svg" xmlns:xlink="http://www.w3.org/1999/xlink" version="1.1" x="0px" y="0px" viewBox="0 0 98 122.5" enable-background="new 0 0 98 98" xml:space="preserve"><path d="M88.07,10.313H9.93c-3.291,0-5.968,2.677-5.968,5.968v54.831c0,3.291,2.677,5.968,5.968,5.968h20.171l-4.323,7.419  c-0.388,0.665-0.393,1.456-0.013,2.116c0.38,0.662,1.088,1.073,1.846,1.073h42.78c0.758,0,1.465-0.411,1.846-1.073  c0.379-0.66,0.374-1.451-0.013-2.116l-4.324-7.419H88.07c3.291,0,5.968-2.677,5.968-5.968V16.28  C94.038,12.99,91.361,10.313,88.07,10.313z M9.93,13.138h78.14c1.733,0,3.142,1.409,3.142,3.142v50.347H6.788V16.28  C6.788,14.548,8.198,13.138,9.93,13.138z M69.163,84.862H28.837l4.535-7.782h31.257L69.163,84.862z M88.07,74.254H9.93  c-1.733,0-3.142-1.41-3.142-3.142v-1.659h84.424v1.659C91.212,72.844,89.802,74.254,88.07,74.254z M39.234,33.369l6.075,2.91v7.446  c0,0.984,0.551,1.859,1.438,2.284l11.337,5.431c1.519,0.727,3.08,1.091,4.642,1.091c1.562,0,3.124-0.364,4.642-1.091l11.337-5.431  c0.887-0.425,1.438-1.3,1.438-2.284v-7.446l2.292-1.098v7.576l-2.681,2.488c-0.288,0.267-0.452,0.643-0.452,1.036v5.815  c0,0.78,0.633,1.413,1.413,1.413h6.265c0.78,0,1.413-0.633,1.413-1.413v-5.815c0-0.393-0.164-0.768-0.452-1.036l-2.681-2.488v-8.93  l1.065-0.51c0.575-0.276,0.932-0.826,0.932-1.435c0-0.646-0.389-1.217-1.041-1.529L63.826,19.626  c-0.547-0.262-1.406-0.38-2.091-0.052l-22.609,10.83c0,0,0,0,0,0c-0.575,0.276-0.932,0.826-0.932,1.436  C38.194,32.485,38.583,33.057,39.234,33.369z M85.568,50.683h-3.439v-3.786l1.719-1.596l1.72,1.596V50.683z M77.317,43.539  l-11.17,5.351c-2.238,1.072-4.604,1.072-6.843,0l-11.17-5.351v-5.907l13.493,6.463c0.311,0.149,0.724,0.251,1.148,0.251  c0.321,0,0.648-0.059,0.942-0.2l13.6-6.515V43.539z M62.726,22.233l19.188,9.191l-19.116-0.975c-0.776-0.039-1.443,0.56-1.483,1.339  c-0.04,0.779,0.56,1.443,1.339,1.483l15.569,0.794l-15.497,7.423l-20.1-9.628L62.726,22.233z M12.32,57.396h9.503  c1.169,0,2.119-0.951,2.119-2.119v-5.122c0-1.169-0.951-2.119-2.119-2.119H12.32c-1.169,0-2.119,0.951-2.119,2.119v5.122  C10.2,56.445,11.151,57.396,12.32,57.396z M13.026,50.861h8.09v3.709h-8.09V50.861z M45.922,55.61l0.423-0.424  c0.533-0.533,0.713-1.308,0.469-2.022c-0.243-0.711-0.858-1.212-1.605-1.308l-3.644-0.467v-1.235c0-1.169-0.951-2.119-2.119-2.119  h-9.503c-1.169,0-2.119,0.951-2.119,2.119v5.122c0,1.169,0.951,2.119,2.119,2.119h7.007l0.309,2.41  c0.096,0.748,0.597,1.363,1.308,1.605c0.715,0.244,1.49,0.064,2.022-0.469l0.423-0.424l4.133,4.133  c0.415,0.415,0.96,0.622,1.506,0.622c0.545,0,1.091-0.207,1.506-0.623l1.898-1.899c0.83-0.83,0.83-2.181,0-3.011L45.922,55.61z   M36.97,51.568c-0.432,0.432-0.635,1.028-0.558,1.635l0.175,1.367h-5.939v-3.709h8.09v0.166l-0.134-0.017  C37.998,50.933,37.402,51.136,36.97,51.568z M46.651,62.162l-4.64-4.64c-0.276-0.276-0.638-0.414-0.999-0.414  c-0.362,0-0.723,0.138-0.999,0.414l-0.175,0.175l-0.48-3.742l3.742,0.48l-0.176,0.176c-0.552,0.552-0.552,1.446,0,1.998l4.64,4.64  L46.651,62.162z M13.692,22.368c0-0.78,0.633-1.413,1.413-1.413H36.66c0.78,0,1.413,0.633,1.413,1.413s-0.633,1.413-1.413,1.413  H15.105C14.325,23.781,13.692,23.148,13.692,22.368z M13.692,41.666c0-0.78,0.633-1.413,1.413-1.413H36.66  c0.78,0,1.413,0.633,1.413,1.413c0,0.78-0.633,1.413-1.413,1.413H15.105C14.325,43.078,13.692,42.446,13.692,41.666z M13.692,35.233  c0-0.78,0.633-1.413,1.413-1.413H36.66c0.78,0,1.413,0.633,1.413,1.413c0,0.78-0.633,1.413-1.413,1.413H15.105  C14.325,36.646,13.692,36.013,13.692,35.233z M13.692,28.8c0-0.78,0.633-1.413,1.413-1.413H36.66c0.78,0,1.413,0.633,1.413,1.413  s-0.633,1.413-1.413,1.413H15.105C14.325,30.213,13.692,29.581,13.692,28.8z"/></svg>